<?xml version="1.0" encoding="utf-8"?>
<!-- Generator: Adobe Illustrator 27.8.1, SVG Export Plug-In . SVG Version: 6.00 Build 0)  -->
<svg version="1.1"
	 id="svg2" xmlns:sodipodi="http://sodipodi.sourceforge.net/DTD/sodipodi-0.dtd" xmlns:cc="http://creativecommons.org/ns#" xmlns:rdf="http://www.w3.org/1999/02/22-rdf-syntax-ns#" xmlns:inkscape="http://www.inkscape.org/namespaces/inkscape" xmlns:dc="http://purl.org/dc/elements/1.1/"
	 xmlns="http://www.w3.org/2000/svg" xmlns:xlink="http://www.w3.org/1999/xlink" x="0px" y="0px" viewBox="0 0 800 500"
	 style="enable-background:new 0 0 800 500;" xml:space="preserve">
<style type="text/css">
	.st0{fill-rule:evenodd;clip-rule:evenodd;fill:#FFFFFF;}
	.st1{fill-rule:evenodd;clip-rule:evenodd;fill:#B22234;}
	.st2{fill-rule:evenodd;clip-rule:evenodd;fill:#3C3B6E;}
</style>
<sodipodi:namedview  bordercolor="#666666" borderopacity="1" gridtolerance="10" guidetolerance="10" id="namedview12" inkscape:current-layer="svg2" inkscape:cx="372.04724" inkscape:cy="-26.181091" inkscape:pageopacity="0" inkscape:pageshadow="2" inkscape:window-height="480" inkscape:window-maximized="0" inkscape:window-width="640" inkscape:window-x="0" inkscape:window-y="0" inkscape:zoom="0.22425739" objecttolerance="10" pagecolor="#ffffff" showgrid="false">
	</sodipodi:namedview>
<g>
	<path id="path4154" inkscape:connector-curvature="0" class="st0" d="M0,0h800v500H0V0z"/>
	<path id="rect4156" inkscape:connector-curvature="0" class="st1" d="M0,0v38.4h800V0C800,0,0,0,0,0z M0,76.9v38.4h800V76.9
		C800,76.9,0,76.9,0,76.9z M0,153.8v38.4h800v-38.4C800,153.8,0,153.8,0,153.8z M0,230.6v38.6h800v-38.6C800,230.6,0,230.6,0,230.6z
		 M0,307.7v38.4h800v-38.4C800,307.7,0,307.7,0,307.7z M0,384.5V423h800v-38.4C800,384.5,0,384.5,0,384.5z M0,461.6V500h800v-38.4
		C800,461.6,0,461.6,0,461.6z"/>
	<path id="path4180" inkscape:connector-curvature="0" class="st2" d="M0,0h380v269.2H0V0z"/>
	<g id="g4184" transform="translate(261.88 .00003)">
		
			<path id="path4186" inkscape:flatsided="false" inkscape:randomized="0" inkscape:rounded="4.888913e-008" sodipodi:arg1="1.0471976" sodipodi:arg2="1.6755161" sodipodi:cx="-274.52829" sodipodi:cy="-13.716982" sodipodi:r1="8.86798" sodipodi:r2="3.3811791" sodipodi:sides="5" sodipodi:type="star" class="st0" d="
			M-220.8,40l-9.5-7l-9.6,6.9l3.7-11.2l-9.5-6.9l11.8,0.1l3.7-11.2l3.6,11.2l11.8,0l-9.6,6.9L-220.8,40z"/>
		
			<path id="path4188" inkscape:flatsided="false" inkscape:randomized="0" inkscape:rounded="4.888913e-008" sodipodi:arg1="1.0471976" sodipodi:arg2="1.6755161" sodipodi:cx="-274.52829" sodipodi:cy="-13.716982" sodipodi:r1="8.86798" sodipodi:r2="3.3811791" sodipodi:sides="5" sodipodi:type="star" class="st0" d="
			M95.9,40l-9.5-7l-9.6,6.9l3.7-11.2l-9.5-6.9l11.8,0.1l3.7-11.2l3.6,11.2l11.8,0l-9.6,6.9L95.9,40z"/>
		
			<path id="path4190" inkscape:flatsided="false" inkscape:randomized="0" inkscape:rounded="4.888913e-008" sodipodi:arg1="1.0471976" sodipodi:arg2="1.6755161" sodipodi:cx="-274.52829" sodipodi:cy="-13.716982" sodipodi:r1="8.86798" sodipodi:r2="3.3811791" sodipodi:sides="5" sodipodi:type="star" class="st0" d="
			M32.6,40l-9.5-7l-9.6,6.9l3.7-11.2l-9.5-6.9l11.8,0.1l3.7-11.2l3.6,11.2l11.8,0L29,28.8L32.6,40z"/>
		
			<path id="path4192" inkscape:flatsided="false" inkscape:randomized="0" inkscape:rounded="4.888913e-008" sodipodi:arg1="1.0471976" sodipodi:arg2="1.6755161" sodipodi:cx="-274.52829" sodipodi:cy="-13.716982" sodipodi:r1="8.86798" sodipodi:r2="3.3811791" sodipodi:sides="5" sodipodi:type="star" class="st0" d="
			M-30.8,40l-9.5-7l-9.6,6.9l3.7-11.2l-9.5-6.9l11.8,0.1l3.7-11.2l3.6,11.2l11.8,0l-9.6,6.9L-30.8,40z"/>
		
			<path id="path4194" inkscape:flatsided="false" inkscape:randomized="0" inkscape:rounded="4.888913e-008" sodipodi:arg1="1.0471976" sodipodi:arg2="1.6755161" sodipodi:cx="-274.52829" sodipodi:cy="-13.716982" sodipodi:r1="8.86798" sodipodi:r2="3.3811791" sodipodi:sides="5" sodipodi:type="star" class="st0" d="
			M-94.1,40l-9.5-7l-9.6,6.9l3.7-11.2l-9.5-6.9l11.8,0.1l3.7-11.2l3.6,11.2l11.8,0l-9.6,6.9L-94.1,40z"/>
		
			<path id="path4196" inkscape:flatsided="false" inkscape:randomized="0" inkscape:rounded="4.888913e-008" sodipodi:arg1="1.0471976" sodipodi:arg2="1.6755161" sodipodi:cx="-274.52829" sodipodi:cy="-13.716982" sodipodi:r1="8.86798" sodipodi:r2="3.3811791" sodipodi:sides="5" sodipodi:type="star" class="st0" d="
			M-157.4,40l-9.5-7l-9.6,6.9l3.7-11.2l-9.5-6.9l11.8,0.1l3.7-11.2l3.6,11.2l11.8,0l-9.6,6.9L-157.4,40z"/>
	</g>
	<g id="g4198" transform="translate(261.88 43.071)">
		
			<path id="path4200" inkscape:flatsided="false" inkscape:randomized="0" inkscape:rounded="4.888913e-008" sodipodi:arg1="1.0471976" sodipodi:arg2="1.6755161" sodipodi:cx="-274.52829" sodipodi:cy="-13.716982" sodipodi:r1="8.86798" sodipodi:r2="3.3811791" sodipodi:sides="5" sodipodi:type="star" class="st0" d="
			M-220.8,212.3l-9.5-7l-9.6,6.9l3.7-11.2l-9.5-6.9l11.8,0.1l3.7-11.2l3.6,11.2l11.8,0l-9.6,6.9L-220.8,212.3z"/>
		
			<path id="path4202" inkscape:flatsided="false" inkscape:randomized="0" inkscape:rounded="4.888913e-008" sodipodi:arg1="1.0471976" sodipodi:arg2="1.6755161" sodipodi:cx="-274.52829" sodipodi:cy="-13.716982" sodipodi:r1="8.86798" sodipodi:r2="3.3811791" sodipodi:sides="5" sodipodi:type="star" class="st0" d="
			M95.9,212.3l-9.5-7l-9.6,6.9l3.7-11.2l-9.5-6.9l11.8,0.1l3.7-11.2l3.6,11.2l11.8,0l-9.6,6.9L95.9,212.3z"/>
		
			<path id="path4204" inkscape:flatsided="false" inkscape:randomized="0" inkscape:rounded="4.888913e-008" sodipodi:arg1="1.0471976" sodipodi:arg2="1.6755161" sodipodi:cx="-274.52829" sodipodi:cy="-13.716982" sodipodi:r1="8.86798" sodipodi:r2="3.3811791" sodipodi:sides="5" sodipodi:type="star" class="st0" d="
			M32.6,212.3l-9.5-7l-9.6,6.9l3.7-11.2l-9.5-6.9l11.8,0.1l3.7-11.2l3.6,11.2l11.8,0l-9.6,6.9L32.6,212.3z"/>
		
			<path id="path4206" inkscape:flatsided="false" inkscape:randomized="0" inkscape:rounded="4.888913e-008" sodipodi:arg1="1.0471976" sodipodi:arg2="1.6755161" sodipodi:cx="-274.52829" sodipodi:cy="-13.716982" sodipodi:r1="8.86798" sodipodi:r2="3.3811791" sodipodi:sides="5" sodipodi:type="star" class="st0" d="
			M-30.8,212.3l-9.5-7l-9.6,6.9l3.7-11.2l-9.5-6.9l11.8,0.1l3.7-11.2l3.6,11.2l11.8,0l-9.6,6.9L-30.8,212.3z"/>
		
			<path id="path4208" inkscape:flatsided="false" inkscape:randomized="0" inkscape:rounded="4.888913e-008" sodipodi:arg1="1.0471976" sodipodi:arg2="1.6755161" sodipodi:cx="-274.52829" sodipodi:cy="-13.716982" sodipodi:r1="8.86798" sodipodi:r2="3.3811791" sodipodi:sides="5" sodipodi:type="star" class="st0" d="
			M-94.1,212.3l-9.5-7l-9.6,6.9l3.7-11.2l-9.5-6.9l11.8,0.1l3.7-11.2l3.6,11.2l11.8,0l-9.6,6.9L-94.1,212.3z"/>
		
			<path id="path4210" inkscape:flatsided="false" inkscape:randomized="0" inkscape:rounded="4.888913e-008" sodipodi:arg1="1.0471976" sodipodi:arg2="1.6755161" sodipodi:cx="-274.52829" sodipodi:cy="-13.716982" sodipodi:r1="8.86798" sodipodi:r2="3.3811791" sodipodi:sides="5" sodipodi:type="star" class="st0" d="
			M-157.4,212.3l-9.5-7l-9.6,6.9l3.7-11.2l-9.5-6.9l11.8,0.1l3.7-11.2l3.6,11.2l11.8,0l-9.6,6.9L-157.4,212.3z"/>
	</g>
	<g id="g4212" transform="translate(255.55 26.919)">
		
			<path id="path4214" inkscape:flatsided="false" inkscape:randomized="0" inkscape:rounded="4.888913e-008" sodipodi:arg1="1.0471976" sodipodi:arg2="1.6755161" sodipodi:cx="-274.52829" sodipodi:cy="-13.716982" sodipodi:r1="8.86798" sodipodi:r2="3.3811791" sodipodi:sides="5" sodipodi:type="star" class="st0" d="
			M70.6,147.7l-9.5-7l-9.6,6.9l3.7-11.2l-9.5-6.9l11.8,0.1l3.7-11.2l3.6,11.2l11.8,0l-9.6,6.9L70.6,147.7z"/>
		
			<path id="path4216" inkscape:flatsided="false" inkscape:randomized="0" inkscape:rounded="4.888913e-008" sodipodi:arg1="1.0471976" sodipodi:arg2="1.6755161" sodipodi:cx="-274.52829" sodipodi:cy="-13.716982" sodipodi:r1="8.86798" sodipodi:r2="3.3811791" sodipodi:sides="5" sodipodi:type="star" class="st0" d="
			M7.2,147.7l-9.5-7l-9.6,6.9l3.7-11.2l-9.5-6.9l11.8,0.1l3.7-11.2l3.6,11.2l11.8,0l-9.6,6.9L7.2,147.7z"/>
		
			<path id="path4218" inkscape:flatsided="false" inkscape:randomized="0" inkscape:rounded="4.888913e-008" sodipodi:arg1="1.0471976" sodipodi:arg2="1.6755161" sodipodi:cx="-274.52829" sodipodi:cy="-13.716982" sodipodi:r1="8.86798" sodipodi:r2="3.3811791" sodipodi:sides="5" sodipodi:type="star" class="st0" d="
			M-56.1,147.7l-9.5-7l-9.6,6.9l3.7-11.2l-9.5-6.9l11.8,0.1l3.7-11.2l3.6,11.2l11.8,0l-9.6,6.9L-56.1,147.7z"/>
		
			<path id="path4220" inkscape:flatsided="false" inkscape:randomized="0" inkscape:rounded="4.888913e-008" sodipodi:arg1="1.0471976" sodipodi:arg2="1.6755161" sodipodi:cx="-274.52829" sodipodi:cy="-13.716982" sodipodi:r1="8.86798" sodipodi:r2="3.3811791" sodipodi:sides="5" sodipodi:type="star" class="st0" d="
			M-119.4,147.7l-9.5-7l-9.6,6.9l3.7-11.2l-9.5-6.9l11.8,0.1l3.7-11.2l3.6,11.2l11.8,0l-9.6,6.9L-119.4,147.7z"/>
		
			<path id="path4222" inkscape:flatsided="false" inkscape:randomized="0" inkscape:rounded="4.888913e-008" sodipodi:arg1="1.0471976" sodipodi:arg2="1.6755161" sodipodi:cx="-274.52829" sodipodi:cy="-13.716982" sodipodi:r1="8.86798" sodipodi:r2="3.3811791" sodipodi:sides="5" sodipodi:type="star" class="st0" d="
			M-182.8,147.7l-9.5-7l-9.6,6.9l3.7-11.2l-9.5-6.9l11.8,0.1l3.7-11.2l3.6,11.2l11.8,0l-9.6,6.9L-182.8,147.7z"/>
	</g>
	<g id="g4224" transform="translate(255.55 5.3838)">
		
			<path id="path4226" inkscape:flatsided="false" inkscape:randomized="0" inkscape:rounded="4.888913e-008" sodipodi:arg1="1.0471976" sodipodi:arg2="1.6755161" sodipodi:cx="-274.52829" sodipodi:cy="-13.716982" sodipodi:r1="8.86798" sodipodi:r2="3.3811791" sodipodi:sides="5" sodipodi:type="star" class="st0" d="
			M70.6,61.6l-9.5-7l-9.6,6.9l3.7-11.2l-9.5-6.9l11.8,0.1l3.7-11.2l3.6,11.2l11.8,0L67,50.4L70.6,61.6z"/>
		
			<path id="path4228" inkscape:flatsided="false" inkscape:randomized="0" inkscape:rounded="4.888913e-008" sodipodi:arg1="1.0471976" sodipodi:arg2="1.6755161" sodipodi:cx="-274.52829" sodipodi:cy="-13.716982" sodipodi:r1="8.86798" sodipodi:r2="3.3811791" sodipodi:sides="5" sodipodi:type="star" class="st0" d="
			M7.2,61.6l-9.5-7l-9.6,6.9l3.7-11.2l-9.5-6.9l11.8,0.1l3.7-11.2l3.6,11.2l11.8,0l-9.6,6.9L7.2,61.6z"/>
		
			<path id="path4230" inkscape:flatsided="false" inkscape:randomized="0" inkscape:rounded="4.888913e-008" sodipodi:arg1="1.0471976" sodipodi:arg2="1.6755161" sodipodi:cx="-274.52829" sodipodi:cy="-13.716982" sodipodi:r1="8.86798" sodipodi:r2="3.3811791" sodipodi:sides="5" sodipodi:type="star" class="st0" d="
			M-56.1,61.6l-9.5-7l-9.6,6.9l3.7-11.2l-9.5-6.9l11.8,0.1l3.7-11.2l3.6,11.2l11.8,0l-9.6,6.9L-56.1,61.6z"/>
		
			<path id="path4232" inkscape:flatsided="false" inkscape:randomized="0" inkscape:rounded="4.888913e-008" sodipodi:arg1="1.0471976" sodipodi:arg2="1.6755161" sodipodi:cx="-274.52829" sodipodi:cy="-13.716982" sodipodi:r1="8.86798" sodipodi:r2="3.3811791" sodipodi:sides="5" sodipodi:type="star" class="st0" d="
			M-119.4,61.6l-9.5-7l-9.6,6.9l3.7-11.2l-9.5-6.9l11.8,0.1l3.7-11.2l3.6,11.2l11.8,0l-9.6,6.9L-119.4,61.6z"/>
		
			<path id="path4234" inkscape:flatsided="false" inkscape:randomized="0" inkscape:rounded="4.888913e-008" sodipodi:arg1="1.0471976" sodipodi:arg2="1.6755161" sodipodi:cx="-274.52829" sodipodi:cy="-13.716982" sodipodi:r1="8.86798" sodipodi:r2="3.3811791" sodipodi:sides="5" sodipodi:type="star" class="st0" d="
			M-182.8,61.6l-9.5-7l-9.6,6.9l3.7-11.2l-9.5-6.9l11.8,0.1l3.7-11.2l3.6,11.2l11.8,0l-9.6,6.9L-182.8,61.6z"/>
	</g>
	<g id="g4236" transform="translate(255.55 37.687)">
		
			<path id="path4238" inkscape:flatsided="false" inkscape:randomized="0" inkscape:rounded="4.888913e-008" sodipodi:arg1="1.0471976" sodipodi:arg2="1.6755161" sodipodi:cx="-274.52829" sodipodi:cy="-13.716982" sodipodi:r1="8.86798" sodipodi:r2="3.3811791" sodipodi:sides="5" sodipodi:type="star" class="st0" d="
			M70.6,190.8l-9.5-7l-9.6,6.9l3.7-11.2l-9.5-6.9l11.8,0.1l3.7-11.2l3.6,11.2l11.8,0l-9.6,6.9L70.6,190.8z"/>
		
			<path id="path4240" inkscape:flatsided="false" inkscape:randomized="0" inkscape:rounded="4.888913e-008" sodipodi:arg1="1.0471976" sodipodi:arg2="1.6755161" sodipodi:cx="-274.52829" sodipodi:cy="-13.716982" sodipodi:r1="8.86798" sodipodi:r2="3.3811791" sodipodi:sides="5" sodipodi:type="star" class="st0" d="
			M7.2,190.8l-9.5-7l-9.6,6.9l3.7-11.2l-9.5-6.9l11.8,0.1l3.7-11.2l3.6,11.2l11.8,0l-9.6,6.9L7.2,190.8z"/>
		
			<path id="path4242" inkscape:flatsided="false" inkscape:randomized="0" inkscape:rounded="4.888913e-008" sodipodi:arg1="1.0471976" sodipodi:arg2="1.6755161" sodipodi:cx="-274.52829" sodipodi:cy="-13.716982" sodipodi:r1="8.86798" sodipodi:r2="3.3811791" sodipodi:sides="5" sodipodi:type="star" class="st0" d="
			M-56.1,190.8l-9.5-7l-9.6,6.9l3.7-11.2l-9.5-6.9l11.8,0.1l3.7-11.2l3.6,11.2l11.8,0l-9.6,6.9L-56.1,190.8z"/>
		
			<path id="path4244" inkscape:flatsided="false" inkscape:randomized="0" inkscape:rounded="4.888913e-008" sodipodi:arg1="1.0471976" sodipodi:arg2="1.6755161" sodipodi:cx="-274.52829" sodipodi:cy="-13.716982" sodipodi:r1="8.86798" sodipodi:r2="3.3811791" sodipodi:sides="5" sodipodi:type="star" class="st0" d="
			M-119.4,190.8l-9.5-7l-9.6,6.9l3.7-11.2l-9.5-6.9l11.8,0.1l3.7-11.2l3.6,11.2l11.8,0l-9.6,6.9L-119.4,190.8z"/>
		
			<path id="path4246" inkscape:flatsided="false" inkscape:randomized="0" inkscape:rounded="4.888913e-008" sodipodi:arg1="1.0471976" sodipodi:arg2="1.6755161" sodipodi:cx="-274.52829" sodipodi:cy="-13.716982" sodipodi:r1="8.86798" sodipodi:r2="3.3811791" sodipodi:sides="5" sodipodi:type="star" class="st0" d="
			M-182.8,190.8l-9.5-7l-9.6,6.9l3.7-11.2l-9.5-6.9l11.8,0.1l3.7-11.2l3.6,11.2l11.8,0l-9.6,6.9L-182.8,190.8z"/>
	</g>
	<g id="g4248" transform="translate(261.88 21.535)">
		
			<path id="path4250" inkscape:flatsided="false" inkscape:randomized="0" inkscape:rounded="4.888913e-008" sodipodi:arg1="1.0471976" sodipodi:arg2="1.6755161" sodipodi:cx="-274.52829" sodipodi:cy="-13.716982" sodipodi:r1="8.86798" sodipodi:r2="3.3811791" sodipodi:sides="5" sodipodi:type="star" class="st0" d="
			M-220.8,126.2l-9.5-7l-9.6,6.9l3.7-11.2l-9.5-6.9l11.8,0.1l3.7-11.2l3.6,11.2l11.8,0l-9.6,6.9L-220.8,126.2z"/>
		
			<path id="path4252" inkscape:flatsided="false" inkscape:randomized="0" inkscape:rounded="4.888913e-008" sodipodi:arg1="1.0471976" sodipodi:arg2="1.6755161" sodipodi:cx="-274.52829" sodipodi:cy="-13.716982" sodipodi:r1="8.86798" sodipodi:r2="3.3811791" sodipodi:sides="5" sodipodi:type="star" class="st0" d="
			M95.9,126.2l-9.5-7l-9.6,6.9l3.7-11.2l-9.5-6.9l11.8,0.1l3.7-11.2l3.6,11.2l11.8,0l-9.6,6.9L95.9,126.2z"/>
		
			<path id="path4254" inkscape:flatsided="false" inkscape:randomized="0" inkscape:rounded="4.888913e-008" sodipodi:arg1="1.0471976" sodipodi:arg2="1.6755161" sodipodi:cx="-274.52829" sodipodi:cy="-13.716982" sodipodi:r1="8.86798" sodipodi:r2="3.3811791" sodipodi:sides="5" sodipodi:type="star" class="st0" d="
			M32.6,126.2l-9.5-7l-9.6,6.9l3.7-11.2L7.7,108l11.8,0.1l3.7-11.2l3.6,11.2l11.8,0L29,115L32.6,126.2z"/>
		
			<path id="path4256" inkscape:flatsided="false" inkscape:randomized="0" inkscape:rounded="4.888913e-008" sodipodi:arg1="1.0471976" sodipodi:arg2="1.6755161" sodipodi:cx="-274.52829" sodipodi:cy="-13.716982" sodipodi:r1="8.86798" sodipodi:r2="3.3811791" sodipodi:sides="5" sodipodi:type="star" class="st0" d="
			M-30.8,126.2l-9.5-7l-9.6,6.9l3.7-11.2l-9.5-6.9l11.8,0.1l3.7-11.2l3.6,11.2l11.8,0l-9.6,6.9L-30.8,126.2z"/>
		
			<path id="path4258" inkscape:flatsided="false" inkscape:randomized="0" inkscape:rounded="4.888913e-008" sodipodi:arg1="1.0471976" sodipodi:arg2="1.6755161" sodipodi:cx="-274.52829" sodipodi:cy="-13.716982" sodipodi:r1="8.86798" sodipodi:r2="3.3811791" sodipodi:sides="5" sodipodi:type="star" class="st0" d="
			M-94.1,126.2l-9.5-7l-9.6,6.9l3.7-11.2l-9.5-6.9l11.8,0.1l3.7-11.2l3.6,11.2l11.8,0l-9.6,6.9L-94.1,126.2z"/>
		
			<path id="path4260" inkscape:flatsided="false" inkscape:randomized="0" inkscape:rounded="4.888913e-008" sodipodi:arg1="1.0471976" sodipodi:arg2="1.6755161" sodipodi:cx="-274.52829" sodipodi:cy="-13.716982" sodipodi:r1="8.86798" sodipodi:r2="3.3811791" sodipodi:sides="5" sodipodi:type="star" class="st0" d="
			M-157.4,126.2l-9.5-7l-9.6,6.9l3.7-11.2l-9.5-6.9l11.8,0.1l3.7-11.2l3.6,11.2l11.8,0l-9.6,6.9L-157.4,126.2z"/>
	</g>
	<g id="g4262" transform="translate(261.88 32.303)">
		
			<path id="path4264" inkscape:flatsided="false" inkscape:randomized="0" inkscape:rounded="4.888913e-008" sodipodi:arg1="1.0471976" sodipodi:arg2="1.6755161" sodipodi:cx="-274.52829" sodipodi:cy="-13.716982" sodipodi:r1="8.86798" sodipodi:r2="3.3811791" sodipodi:sides="5" sodipodi:type="star" class="st0" d="
			M-220.8,169.2l-9.5-7l-9.6,6.9l3.7-11.2l-9.5-6.9l11.8,0.1l3.7-11.2l3.6,11.2l11.8,0l-9.6,6.9L-220.8,169.2z"/>
		
			<path id="path4266" inkscape:flatsided="false" inkscape:randomized="0" inkscape:rounded="4.888913e-008" sodipodi:arg1="1.0471976" sodipodi:arg2="1.6755161" sodipodi:cx="-274.52829" sodipodi:cy="-13.716982" sodipodi:r1="8.86798" sodipodi:r2="3.3811791" sodipodi:sides="5" sodipodi:type="star" class="st0" d="
			M95.9,169.2l-9.5-7l-9.6,6.9l3.7-11.2l-9.5-6.9l11.8,0.1l3.7-11.2l3.6,11.2l11.8,0l-9.6,6.9L95.9,169.2z"/>
		
			<path id="path4268" inkscape:flatsided="false" inkscape:randomized="0" inkscape:rounded="4.888913e-008" sodipodi:arg1="1.0471976" sodipodi:arg2="1.6755161" sodipodi:cx="-274.52829" sodipodi:cy="-13.716982" sodipodi:r1="8.86798" sodipodi:r2="3.3811791" sodipodi:sides="5" sodipodi:type="star" class="st0" d="
			M32.6,169.2l-9.5-7l-9.6,6.9l3.7-11.2L7.7,151l11.8,0.1l3.7-11.2l3.6,11.2l11.8,0L29,158L32.6,169.2z"/>
		
			<path id="path4270" inkscape:flatsided="false" inkscape:randomized="0" inkscape:rounded="4.888913e-008" sodipodi:arg1="1.0471976" sodipodi:arg2="1.6755161" sodipodi:cx="-274.52829" sodipodi:cy="-13.716982" sodipodi:r1="8.86798" sodipodi:r2="3.3811791" sodipodi:sides="5" sodipodi:type="star" class="st0" d="
			M-30.8,169.2l-9.5-7l-9.6,6.9l3.7-11.2l-9.5-6.9l11.8,0.1l3.7-11.2l3.6,11.2l11.8,0l-9.6,6.9L-30.8,169.2z"/>
		
			<path id="path4272" inkscape:flatsided="false" inkscape:randomized="0" inkscape:rounded="4.888913e-008" sodipodi:arg1="1.0471976" sodipodi:arg2="1.6755161" sodipodi:cx="-274.52829" sodipodi:cy="-13.716982" sodipodi:r1="8.86798" sodipodi:r2="3.3811791" sodipodi:sides="5" sodipodi:type="star" class="st0" d="
			M-94.1,169.2l-9.5-7l-9.6,6.9l3.7-11.2l-9.5-6.9l11.8,0.1l3.7-11.2l3.6,11.2l11.8,0l-9.6,6.9L-94.1,169.2z"/>
		
			<path id="path4274" inkscape:flatsided="false" inkscape:randomized="0" inkscape:rounded="4.888913e-008" sodipodi:arg1="1.0471976" sodipodi:arg2="1.6755161" sodipodi:cx="-274.52829" sodipodi:cy="-13.716982" sodipodi:r1="8.86798" sodipodi:r2="3.3811791" sodipodi:sides="5" sodipodi:type="star" class="st0" d="
			M-157.4,169.2l-9.5-7l-9.6,6.9l3.7-11.2l-9.5-6.9l11.8,0.1l3.7-11.2l3.6,11.2l11.8,0l-9.6,6.9L-157.4,169.2z"/>
	</g>
	<g id="g4276" transform="translate(261.88 10.768)">
		
			<path id="path4278" inkscape:flatsided="false" inkscape:randomized="0" inkscape:rounded="4.888913e-008" sodipodi:arg1="1.0471976" sodipodi:arg2="1.6755161" sodipodi:cx="-274.52829" sodipodi:cy="-13.716982" sodipodi:r1="8.86798" sodipodi:r2="3.3811791" sodipodi:sides="5" sodipodi:type="star" class="st0" d="
			M-220.8,83.1l-9.5-7l-9.6,6.9l3.7-11.2l-9.5-6.9l11.8,0.1l3.7-11.2l3.6,11.2l11.8,0l-9.6,6.9L-220.8,83.1z"/>
		
			<path id="path4280" inkscape:flatsided="false" inkscape:randomized="0" inkscape:rounded="4.888913e-008" sodipodi:arg1="1.0471976" sodipodi:arg2="1.6755161" sodipodi:cx="-274.52829" sodipodi:cy="-13.716982" sodipodi:r1="8.86798" sodipodi:r2="3.3811791" sodipodi:sides="5" sodipodi:type="star" class="st0" d="
			M95.9,83.1l-9.5-7L76.9,83l3.7-11.2l-9.5-6.9L82.8,65l3.7-11.2L90.1,65l11.8,0l-9.6,6.9L95.9,83.1z"/>
		
			<path id="path4282" inkscape:flatsided="false" inkscape:randomized="0" inkscape:rounded="4.888913e-008" sodipodi:arg1="1.0471976" sodipodi:arg2="1.6755161" sodipodi:cx="-274.52829" sodipodi:cy="-13.716982" sodipodi:r1="8.86798" sodipodi:r2="3.3811791" sodipodi:sides="5" sodipodi:type="star" class="st0" d="
			M32.6,83.1l-9.5-7L13.5,83l3.7-11.2l-9.5-6.9L19.5,65l3.7-11.2L26.8,65l11.8,0L29,71.9L32.6,83.1z"/>
		
			<path id="path4284" inkscape:flatsided="false" inkscape:randomized="0" inkscape:rounded="4.888913e-008" sodipodi:arg1="1.0471976" sodipodi:arg2="1.6755161" sodipodi:cx="-274.52829" sodipodi:cy="-13.716982" sodipodi:r1="8.86798" sodipodi:r2="3.3811791" sodipodi:sides="5" sodipodi:type="star" class="st0" d="
			M-30.8,83.1l-9.5-7l-9.6,6.9l3.7-11.2l-9.5-6.9l11.8,0.1l3.7-11.2l3.6,11.2l11.8,0l-9.6,6.9L-30.8,83.1z"/>
		
			<path id="path4286" inkscape:flatsided="false" inkscape:randomized="0" inkscape:rounded="4.888913e-008" sodipodi:arg1="1.0471976" sodipodi:arg2="1.6755161" sodipodi:cx="-274.52829" sodipodi:cy="-13.716982" sodipodi:r1="8.86798" sodipodi:r2="3.3811791" sodipodi:sides="5" sodipodi:type="star" class="st0" d="
			M-94.1,83.1l-9.5-7l-9.6,6.9l3.7-11.2l-9.5-6.9l11.8,0.1l3.7-11.2l3.6,11.2l11.8,0l-9.6,6.9L-94.1,83.1z"/>
		
			<path id="path4288" inkscape:flatsided="false" inkscape:randomized="0" inkscape:rounded="4.888913e-008" sodipodi:arg1="1.0471976" sodipodi:arg2="1.6755161" sodipodi:cx="-274.52829" sodipodi:cy="-13.716982" sodipodi:r1="8.86798" sodipodi:r2="3.3811791" sodipodi:sides="5" sodipodi:type="star" class="st0" d="
			M-157.4,83.1l-9.5-7l-9.6,6.9l3.7-11.2l-9.5-6.9l11.8,0.1l3.7-11.2l3.6,11.2l11.8,0l-9.6,6.9L-157.4,83.1z"/>
	</g>
	<g id="g4290" transform="translate(255.55 16.152)">
		
			<path id="path4292" inkscape:flatsided="false" inkscape:randomized="0" inkscape:rounded="4.888913e-008" sodipodi:arg1="1.0471976" sodipodi:arg2="1.6755161" sodipodi:cx="-274.52829" sodipodi:cy="-13.716982" sodipodi:r1="8.86798" sodipodi:r2="3.3811791" sodipodi:sides="5" sodipodi:type="star" class="st0" d="
			M70.6,104.6l-9.5-7l-9.6,6.9l3.7-11.2l-9.5-6.9l11.8,0.1l3.7-11.2l3.6,11.2l11.8,0L67,93.4L70.6,104.6z"/>
		
			<path id="path4294" inkscape:flatsided="false" inkscape:randomized="0" inkscape:rounded="4.888913e-008" sodipodi:arg1="1.0471976" sodipodi:arg2="1.6755161" sodipodi:cx="-274.52829" sodipodi:cy="-13.716982" sodipodi:r1="8.86798" sodipodi:r2="3.3811791" sodipodi:sides="5" sodipodi:type="star" class="st0" d="
			M7.2,104.6l-9.5-7l-9.6,6.9l3.7-11.2l-9.5-6.9l11.8,0.1l3.7-11.2l3.6,11.2l11.8,0l-9.6,6.9L7.2,104.6z"/>
		
			<path id="path4296" inkscape:flatsided="false" inkscape:randomized="0" inkscape:rounded="4.888913e-008" sodipodi:arg1="1.0471976" sodipodi:arg2="1.6755161" sodipodi:cx="-274.52829" sodipodi:cy="-13.716982" sodipodi:r1="8.86798" sodipodi:r2="3.3811791" sodipodi:sides="5" sodipodi:type="star" class="st0" d="
			M-56.1,104.6l-9.5-7l-9.6,6.9l3.7-11.2l-9.5-6.9l11.8,0.1l3.7-11.2l3.6,11.2l11.8,0l-9.6,6.9L-56.1,104.6z"/>
		
			<path id="path4298" inkscape:flatsided="false" inkscape:randomized="0" inkscape:rounded="4.888913e-008" sodipodi:arg1="1.0471976" sodipodi:arg2="1.6755161" sodipodi:cx="-274.52829" sodipodi:cy="-13.716982" sodipodi:r1="8.86798" sodipodi:r2="3.3811791" sodipodi:sides="5" sodipodi:type="star" class="st0" d="
			M-119.4,104.6l-9.5-7l-9.6,6.9l3.7-11.2l-9.5-6.9l11.8,0.1l3.7-11.2l3.6,11.2l11.8,0l-9.6,6.9L-119.4,104.6z"/>
		
			<path id="path4300" inkscape:flatsided="false" inkscape:randomized="0" inkscape:rounded="4.888913e-008" sodipodi:arg1="1.0471976" sodipodi:arg2="1.6755161" sodipodi:cx="-274.52829" sodipodi:cy="-13.716982" sodipodi:r1="8.86798" sodipodi:r2="3.3811791" sodipodi:sides="5" sodipodi:type="star" class="st0" d="
			M-182.8,104.6l-9.5-7l-9.6,6.9l3.7-11.2l-9.5-6.9l11.8,0.1l3.7-11.2l3.6,11.2l11.8,0l-9.6,6.9L-182.8,104.6z"/>
	</g>
</g>
</svg>
