<?xml version="1.0" encoding="utf-8"?>
<!-- Generator: Adobe Illustrator 27.8.1, SVG Export Plug-In . SVG Version: 6.00 Build 0)  -->
<svg version="1.1"
	 id="svg2" xmlns:inkscape="http://www.inkscape.org/namespaces/inkscape" xmlns:rdf="http://www.w3.org/1999/02/22-rdf-syntax-ns#" xmlns:cc="http://creativecommons.org/ns#" xmlns:dc="http://purl.org/dc/elements/1.1/" xmlns:sodipodi="http://sodipodi.sourceforge.net/DTD/sodipodi-0.dtd"
	 xmlns="http://www.w3.org/2000/svg" xmlns:xlink="http://www.w3.org/1999/xlink" x="0px" y="0px" viewBox="0 0 800 500"
	 style="enable-background:new 0 0 800 500;" xml:space="preserve">
<style type="text/css">
	.st0{fill:#FF0000;}
</style>
<sodipodi:namedview  bordercolor="#666666" borderopacity="1" gridtolerance="10" guidetolerance="10" id="namedview12" inkscape:current-layer="svg2" inkscape:cx="372.04724" inkscape:cy="-26.181091" inkscape:pageopacity="0" inkscape:pageshadow="2" inkscape:window-height="480" inkscape:window-maximized="0" inkscape:window-width="640" inkscape:window-x="0" inkscape:window-y="0" inkscape:zoom="0.22425739" objecttolerance="10" pagecolor="#ffffff" showgrid="false">
	</sodipodi:namedview>
<g>
	<rect class="st0" width="150" height="500"/>
	<rect x="650" class="st0" width="150" height="500"/>
</g>
<path id="path8" inkscape:connector-curvature="0" class="st0" d="M400,46.9l-34.1,63.6c-3.9,6.9-10.8,6.3-17.7,2.4l-24.7-12.8
	l18.4,97.7c3.9,17.9-8.5,17.9-14.7,10.1l-43.1-48.3l-7,24.5c-0.8,3.2-4.4,6.6-9.7,5.8l-54.5-11.5l14.3,52
	c3.1,11.6,5.5,16.4-3.1,19.4l-19.4,9.1l93.8,76.2c3.7,2.9,5.6,8.1,4.3,12.8l-8.2,26.9c32.3-3.7,61.2-9.3,93.6-12.8
	c2.9-0.3,7.6,4.4,7.6,7.7l-4.3,98.7h15.7l-2.5-98.5c0-3.3,4.3-8.2,7.2-7.9c32.3,3.5,61.3,9.1,93.6,12.8l-8.2-26.9
	c-1.3-4.7,0.6-9.9,4.3-12.8l93.8-76.2l-19.4-9.1c-8.5-3.1-6.2-7.8-3.1-19.4l14.3-52L532.6,190c-5.3,0.8-8.9-2.6-9.7-5.8l-7-24.5
	L472.8,208c-6.1,7.7-18.5,7.7-14.7-10.1l18.4-97.7l-24.7,12.8c-6.9,3.9-13.9,4.5-17.7-2.4"/>
</svg>
