<?xml version="1.0" encoding="utf-8"?>
<!-- Generator: Adobe Illustrator 27.8.1, SVG Export Plug-In . SVG Version: 6.00 Build 0)  -->
<svg version="1.1"
	 id="svg2" xmlns:inkscape="http://www.inkscape.org/namespaces/inkscape" xmlns:rdf="http://www.w3.org/1999/02/22-rdf-syntax-ns#" xmlns:cc="http://creativecommons.org/ns#" xmlns:dc="http://purl.org/dc/elements/1.1/" xmlns:sodipodi="http://sodipodi.sourceforge.net/DTD/sodipodi-0.dtd"
	 xmlns="http://www.w3.org/2000/svg" xmlns:xlink="http://www.w3.org/1999/xlink" x="0px" y="0px" viewBox="0 0 800 500"
	 style="enable-background:new 0 0 800 500;" xml:space="preserve">
<style type="text/css">
	.st0{fill:#000066;}
	.st1{fill:#FFFFFF;}
	.st2{fill:#CC0000;}
	.st3{fill-rule:evenodd;clip-rule:evenodd;fill:#FFFFFF;}
</style>
<sodipodi:namedview  bordercolor="#666666" borderopacity="1" gridtolerance="10" guidetolerance="10" id="namedview12" inkscape:current-layer="svg2" inkscape:cx="372.04724" inkscape:cy="-26.181091" inkscape:pageopacity="0" inkscape:pageshadow="2" inkscape:window-height="480" inkscape:window-maximized="0" inkscape:window-width="640" inkscape:window-x="0" inkscape:window-y="0" inkscape:zoom="0.22425739" objecttolerance="10" pagecolor="#ffffff" showgrid="false">
	</sodipodi:namedview>
<g id="g602" transform="scale(8.3333)">
	<rect id="rect124" y="0" class="st0" width="96" height="60"/>
	<g id="g584">
		<path id="path146" class="st1" d="M0,0v3.4L53.3,30H60v-3.4L6.7,0L0,0L0,0z M60,0v3.4L6.7,30H0v-3.4L53.3,0H60z"/>
		<path id="path136" class="st1" d="M25,0v30h10V0H25z M0,10v10h60V10H0z"/>
		<path id="path141" class="st2" d="M0,12v6h60v-6H0z M27,0v30h6V0H27z"/>
		<path id="path150" class="st2" d="M0,30l20-10h4.5l-20,10H0z M0,0l20,10h-4.5L0,2.2C0,2.2,0,0,0,0z M35.5,10l20-10H60L40,10H35.5z
			 M60,30L40,20h4.5L60,27.8V30z"/>
	</g>
	<polygon id="polygon589" class="st3" points="30,36 31.7,41.4 37,39.4 33.9,44.1 38.8,47 33.1,47.5 33.9,53.1 30,49 26.1,53.1 
		26.9,47.5 21.2,47 26.1,44.1 23,39.4 28.3,41.4 	"/>
	<polygon id="polygon590" class="st3" points="90,45.7 90.8,48.3 93.4,47.3 91.9,49.6 94.2,51 91.5,51.2 91.9,53.9 90,51.9 
		88.1,53.9 88.5,51.2 85.8,51 88.1,49.6 86.6,47.3 89.2,48.3 	"/>
	<polygon id="polygon592" class="st3" points="90,5.7 90.8,8.3 93.4,7.3 91.9,9.6 94.2,11 91.5,11.2 91.9,13.9 90,11.9 88.1,13.9 
		88.5,11.2 85.8,11 88.1,9.6 86.6,7.3 89.2,8.3 	"/>
	<polygon id="polygon593" class="st3" points="75,22 75.8,24.5 78.4,23.6 76.9,25.8 79.2,27.2 76.5,27.4 76.9,30.1 75,28.2 
		73.1,30.1 73.5,27.4 70.8,27.2 73.1,25.8 71.6,23.6 74.2,24.5 	"/>
	<polygon class="st3" points="96,30 96,30 95.3,31.6 93.6,31.7 94.9,32.8 94.5,34.5 96,33.6 96,33.6 	"/>
</g>
</svg>
