<?xml version="1.0" encoding="utf-8"?>
<!-- Generator: Adobe Illustrator 27.8.1, SVG Export Plug-In . SVG Version: 6.00 Build 0)  -->
<svg version="1.1" id="Layer_1" xmlns="http://www.w3.org/2000/svg" xmlns:xlink="http://www.w3.org/1999/xlink" x="0px" y="0px"
	 viewBox="0 0 32 32" style="enable-background:new 0 0 32 32;" xml:space="preserve">
<style type="text/css">
	.st0{fill:#231F20;}
</style>
<g>
	<path class="st0" d="M16,2.5c7.4,0,13.5,6.1,13.5,13.5S23.4,29.5,16,29.5S2.5,23.4,2.5,16S8.6,2.5,16,2.5 M16,0C7.2,0,0,7.2,0,16
		s7.2,16,16,16s16-7.2,16-16S24.8,0,16,0L16,0z"/>
</g>
<rect x="14" y="11.3" class="st0" width="4" height="16"/>
<path class="st0" d="M16,4.8L16,4.8c1.4,0,2.5,1.1,2.5,2.5v0c0,1.4-1.1,2.5-2.5,2.5h0c-1.4,0-2.5-1.1-2.5-2.5v0
	C13.5,5.9,14.6,4.8,16,4.8z"/>
</svg>
