<?xml version="1.0" encoding="utf-8"?>
<!-- Generator: Adobe Illustrator 27.8.1, SVG Export Plug-In . SVG Version: 6.00 Build 0)  -->
<svg version="1.1" id="Layer_1" xmlns="http://www.w3.org/2000/svg" xmlns:xlink="http://www.w3.org/1999/xlink" x="0px" y="0px"
	 viewBox="0 0 196.5 39.3" style="enable-background:new 0 0 196.5 39.3;" xml:space="preserve">
<style type="text/css">
	.st0{fill:#174E8C;}
	.st1{fill:#8CAFDB;}
	.st2{fill:#6387C5;}
</style>
<g>
	<g>
		<g>
			<path class="st0" d="M0.7,38.5h6.4c0.4-1.1,0.9-2.5,1.5-4.2c0.2-0.6,0.5-1.2,0.7-1.8H3C2.2,34.7,1.4,36.7,0.7,38.5z"/>
			<path class="st1" d="M10.4,30c0.5-1.4,3.8-9.5,4.4-11c0.6-1.5,1.2-2.9,1.8-4.3c0.6-1.4,1.2-2.8,1.8-4C19,9.4,19.5,8.2,20,7.2
				c0,0,0,0,0,0l2.5-5.9C21.7,1,20.9,0.8,20,0.7c-1.1,0-2.1,0.3-2.8,0.8c-0.8,0.6-1.6,1.5-2.2,3c-1.3,2.9-2.6,5.8-3.9,8.8
				c-1.3,3-2.6,6-3.8,8.9C6,25.2,4.8,28,3.7,30.8C3.5,31.4,3.3,32,3,32.6h6.4C9.7,31.7,10.1,30.9,10.4,30L10.4,30z"/>
			<path class="st0" d="M36.9,32.6h-6.4c0.2,0.6,0.5,1.2,0.7,1.8c0.6,1.7,1.1,3.1,1.5,4.2h6.4C38.5,36.7,37.7,34.7,36.9,32.6z"/>
			<path class="st2" d="M36.2,30.8c-1.1-2.8-2.3-5.6-3.5-8.5c-1.2-2.9-2.5-5.9-3.8-8.9c-1.3-3-2.6-5.9-3.9-8.8
				c-0.6-1.4-1.4-2.4-2.2-3c-0.1-0.1-0.2-0.1-0.4-0.2L20,7.2c0.5,1,1,2.1,1.6,3.4c0.6,1.3,1.2,2.6,1.8,4c0.6,1.4,1.2,2.9,1.8,4.3
				c0.6,1.5,3.9,9.6,4.4,11h0c0.4,0.9,0.7,1.8,1,2.6h6.4C36.7,32,36.4,31.4,36.2,30.8z"/>
		</g>
	</g>
	<g>
		<g>
			<g>
				<path class="st2" d="M191.8,13.6H191v-0.3h1.9v0.3h-0.8v2.3h-0.3V13.6z"/>
				<path class="st2" d="M195.4,14.8c0-0.4,0-0.8,0-1.1h0c-0.1,0.3-0.2,0.6-0.3,1l-0.5,1.3h-0.3l-0.4-1.2c-0.1-0.4-0.2-0.7-0.3-1h0
					c0,0.3,0,0.8,0,1.2l-0.1,1.1h-0.3l0.2-2.6h0.4l0.4,1.3c0.1,0.3,0.2,0.6,0.3,0.9h0c0.1-0.3,0.2-0.5,0.3-0.9l0.5-1.3h0.4l0.2,2.6
					h-0.3L195.4,14.8z"/>
			</g>
		</g>
		<g>
			<polygon class="st2" points="72.8,13.3 67.7,13.3 55.8,26.7 55.8,13.3 51.8,13.3 51.8,38.5 55.8,38.5 55.8,32.1 59.6,27.9 
				68,38.5 68.1,38.5 73.1,38.5 62.3,24.9 			"/>
			<path class="st2" d="M91.3,13.3h-5.8l-9.4,25.2h4.2l2.1-5.7h11.8l2.1,5.7h4.2l-9.2-25.1L91.3,13.3z M93,29.2h-9.3l4.7-12.5
				L93,29.2z"/>
			<path class="st2" d="M125.8,21.6c0-4.6-3.7-8.2-8.3-8.2h-10.9v25.2h4v-9h5.6l5.6,9h4.4l-5.9-9.5C123.6,28,125.8,25,125.8,21.6z
				 M121.8,21.5c0,2.6-1.9,4.5-4.7,4.5h-6.6V17h6.8C120,17,121.8,18.8,121.8,21.5z"/>
			<rect x="159.9" y="13.3" class="st2" width="3.9" height="25.2"/>
			<path class="st2" d="M185,13.4l0-0.1h-5.8l-9.4,25.2h4.2l2.1-5.7H188l2.1,5.7h4.2L185,13.4z M186.7,29.2h-9.3l4.7-12.5
				L186.7,29.2z"/>
			<path class="st2" d="M141,13.3h-8.7v25.2h8.7c3.6,0,6.9-1.3,9.3-3.7c2.3-2.3,3.6-5.5,3.6-8.9C153.9,18.8,148.2,13.3,141,13.3z
				 M141,34.7h-4.7V17.1h4.7c5.2,0,8.9,3.7,8.9,8.8C149.9,31,146.1,34.7,141,34.7z"/>
		</g>
	</g>
</g>
</svg>
