<svg width="24" height="24" viewBox="0 0 24 24" fill="none" xmlns="http://www.w3.org/2000/svg">
<path d="M6.34255 4.9293L5.63545 4.22219L4.22123 5.6364L4.92834 6.34351L6.34255 4.9293ZM17.6563 19.0714L18.3634 19.7785L19.7776 18.3643L19.0705 17.6572L17.6563 19.0714ZM19.0705 6.34351L19.7776 5.6364L18.3634 4.22219L17.6563 4.9293L19.0705 6.34351ZM4.92834 17.6572L4.22123 18.3643L5.63545 19.7785L6.34255 19.0714L4.92834 17.6572ZM4.92834 6.34351L17.6563 19.0714L19.0705 17.6572L6.34255 4.9293L4.92834 6.34351ZM17.6563 4.9293L4.92834 17.6572L6.34255 19.0714L19.0705 6.34351L17.6563 4.9293Z" fill="#4d4d4d"/>
</svg>
